<svg id="Layer_1" data-name="Layer 1" xmlns="http://www.w3.org/2000/svg" viewBox="0 0 190.92 169.09">
  <path class="cls-1" style="fill: #dbdbdb;" d="M336,262.95c-0.16,12.22,5.52,20.84,13.28,29.28-4-.89-8.1-1.53-12-2.71a76.11,76.11,0,0,1-35.46-22.32,9.74,9.74,0,0,0-8.18-3.46c-19,.15-38-0.61-57,0.3-13.84.66-30.9-10.46-32.45-30.21-2.37-30.05-4.3-60.14-6.33-90.22-0.74-11,7.17-20.59,18.32-20.49,9.39,0.08,18.81,1.92,28.15,3.43,39.59,6.4,79.13,13.09,118.73,19.43,16.93,2.71,25.84,12.76,25.68,29.95-0.2,20.16-.36,40.32-0.73,60.48a39.58,39.58,0,0,1-1.67,10.78c-3.15,10.26-10.4,15.57-21.16,15.72C355.58,263.05,346,262.95,336,262.95Zm-12.57-24.76v-72H307.12v26.67H280.81V166.29H264.4v71.93H281V209.34h26.27v28.84h16.16Z" transform="translate(-197.84 -123.13)"/>
</svg>
