<svg id="Layer_1" data-name="Layer 1" xmlns="http://www.w3.org/2000/svg" viewBox="0 0 15.19 15.15"><defs><style>.cls-1{fill:#dbdbdb;}</style></defs><title>search-icon</title><path class="cls-1" d="M9.76,8.45a5.71,5.71,0,0,0-1-7.73A5.7,5.7,0,0,0,.6,8.6a5.88,5.88,0,0,0,3.9,2.25,5.77,5.77,0,0,0,4-1L13,14.3H13a0.77,0.77,0,0,0,.24.16,1,1,0,0,0,.46.11,0.86,0.86,0,0,0,.6-0.22,1.13,1.13,0,0,0,.25-0.85V13.29ZM8,2.59A3.51,3.51,0,0,1,8.9,5.3,3.85,3.85,0,0,1,5.1,9.1,3.85,3.85,0,0,1,1.3,5.22,3.94,3.94,0,0,1,5.2,1.4,3.8,3.8,0,0,1,8,2.59Z" transform="translate(0.59 0.58)"/></svg>